<svg width="246" height="214" viewBox="0 0 246 214" fill="none" xmlns="http://www.w3.org/2000/svg">
<path d="M125.405 115.692C121.589 116.847 117.027 115.977 111.718 113.082L6.52566 57.148C8.95502 53.1886 14.2006 49.9892 22.2624 47.5498L171.251 2.46873C180.298 -0.268538 187.132 -0.657294 191.756 1.30246L135.349 105.932C132.535 111.284 129.22 114.538 125.405 115.692ZM40.3306 203.503C37.6764 200.947 35.3159 196.254 33.249 189.423L2.35698 87.328C0.215583 80.2509 -0.385386 74.8236 0.554075 71.0463L87.2094 116.669L40.3306 203.503ZM73.9271 210.971C64.8191 213.727 57.8024 214.07 52.8769 212L100.528 123.723L107.595 127.429C115.795 131.665 123.25 132.768 129.958 130.739C136.665 128.709 142.258 123.658 146.734 115.586L150.533 108.492L239.279 155.699C236.678 159.979 231.224 163.376 222.916 165.89L73.9271 210.971ZM244.77 141.543L157.734 95.3297L204.523 9.5307C207.301 12.0491 209.76 16.8468 211.901 23.924L242.793 126.019C244.842 132.789 245.5 137.963 244.77 141.543Z" fill="white"/>
</svg>
